<?xml version="1.0" standalone="no"?>
<!DOCTYPE svg PUBLIC "-//W3C//DTD SVG 20010904//EN"
 "http://www.w3.org/TR/2001/REC-SVG-20010904/DTD/svg10.dtd">
<svg version="1.0" xmlns="http://www.w3.org/2000/svg"
 width="86.000000pt" height="86.000000pt" viewBox="0 0 86.000000 86.000000"
 preserveAspectRatio="xMidYMid meet">

<g transform="translate(0.000000,86.000000) scale(0.100000,-0.100000)"
fill="#000000" stroke="none">
<path d="M319 836 c-142 -38 -251 -167 -279 -329 -23 -130 20 -269 113 -361
119 -119 283 -155 442 -95 68 25 143 83 151 115 6 21 -2 34 -42 75 -26 27 -55
49 -64 49 -9 0 -29 -13 -45 -30 -64 -67 -185 -79 -264 -27 -46 31 -78 74 -65
87 5 4 126 45 269 90 143 45 266 86 273 92 42 35 -42 203 -138 273 -94 69
-232 93 -351 61z m208 -173 c31 -14 63 -56 52 -67 -5 -6 -327 -106 -339 -106
-16 0 -11 28 14 78 26 51 45 71 91 95 40 22 137 22 182 0z"/>
</g>
</svg>
